<svg id="Layer_1" data-name="Layer 1" xmlns="http://www.w3.org/2000/svg" viewBox="0 0 200 160.75"><defs><style>.cls-1{fill:#355e93;}</style></defs><title>pull-quote-mark</title><path class="cls-1" d="M97,15.25c-2.66,1.74-5.2,3.38-7.71,5.06A100.34,100.34,0,0,0,70.93,35.83C63.57,43.89,56.8,52.4,52,62.28a47.14,47.14,0,0,0-4.32,14.5c-.57,4.3.84,8.21,2.88,11.94a79.58,79.58,0,0,0,11,14.84,89.41,89.41,0,0,1,10.69,13.89,28.46,28.46,0,0,1,4,9.7,19.48,19.48,0,0,1-2,12.21c-2.72,5.41-7.12,9.2-12.09,12.41A55.37,55.37,0,0,1,40.51,160c-10.17,1.59-20.11.81-29.47-3.94A3,3,0,0,1,9.93,155a59.09,59.09,0,0,1-7.82-21.24,111.43,111.43,0,0,1-2-19.1c0-5.07-.24-10.15.09-15.2A93.87,93.87,0,0,1,7.84,68.85a110.78,110.78,0,0,1,13.3-23.54A140,140,0,0,1,36.85,28.1,198.83,198.83,0,0,1,59.52,9.53,101.38,101.38,0,0,1,74.23,1a7.79,7.79,0,0,1,7-.1C87,3.55,92.13,7.09,95.58,12.66,96.07,13.46,96.46,14.31,97,15.25Z"/><path class="cls-1" d="M200,15.33c-.47.31-.91.6-1.36.87a117.77,117.77,0,0,0-25.11,19.94c-7.21,7.73-13.94,15.88-18.74,25.39A43.81,43.81,0,0,0,150,78.63a16.85,16.85,0,0,0,2,8,57.93,57.93,0,0,0,8.28,12.57c4.22,5.1,8.53,10.14,12.59,15.37a31,31,0,0,1,5.41,10.79,19.17,19.17,0,0,1-1.6,13.92c-2.75,5.54-7.26,9.4-12.37,12.64a55.45,55.45,0,0,1-20.89,8,53.5,53.5,0,0,1-16.71.19,46,46,0,0,1-13-4A3.41,3.41,0,0,1,112.3,155,46.5,46.5,0,0,1,105.84,138a136.62,136.62,0,0,1-2.21-16.1c-.47-6.93-.62-13.9-.46-20.84a73.93,73.93,0,0,1,2.72-17.25,111.93,111.93,0,0,1,18.94-39.27A141.49,141.49,0,0,1,140.94,27.2,175.54,175.54,0,0,1,166.52,7c3.7-2.37,7.72-4.26,11.62-6.32A5.69,5.69,0,0,1,183,.44c7.11,2.76,13,7,16.61,13.92A7.88,7.88,0,0,1,200,15.33Z"/></svg>